<?xml version="1.0" encoding="UTF-8" standalone="no"?>
<!DOCTYPE svg PUBLIC "-//W3C//DTD SVG 1.1//EN" "http://www.w3.org/Graphics/SVG/1.1/DTD/svg11.dtd">
<svg width="100%" height="100%" viewBox="0 0 709 709" version="1.1" xmlns="http://www.w3.org/2000/svg" xmlns:xlink="http://www.w3.org/1999/xlink" xml:space="preserve" xmlns:serif="http://www.serif.com/" style="fill-rule:evenodd;clip-rule:evenodd;stroke-linejoin:round;stroke-miterlimit:2;">
    <g id="Bildmarke" transform="matrix(4.166667,0,0,4.166667,3.092083,3.09125)">
        <g transform="matrix(1.648391,0,0,1.648391,66.748679,0.594345)">
            <path d="M0,101.511C-0.179,101.511 -0.311,101.343 -0.267,101.167C1.41,94.799 26.942,1.882 26.942,1.882C27.243,0.626 28.052,-0.004 29.355,-0.004L34.91,-0.004C36.217,-0.004 37.019,0.626 37.323,1.882C37.323,1.882 40.52,16.382 44.266,33.463C44.445,34.598 44.251,35.008 43.987,36.257L37.341,65.839C37.242,66.517 37.543,66.85 38.242,66.85L49.831,66.85C51.069,66.912 51.567,67.322 51.768,67.908C53.475,75.828 54.833,82.236 55.474,85.458C55.767,87.542 54.672,87.721 53.709,87.736L33.27,87.736C32.87,87.736 32.567,87.981 32.365,88.461L29.806,99.629C29.505,100.889 28.649,101.515 27.243,101.515L0,101.511Z" style="fill:rgb(173,127,106);fill-rule:nonzero;"/>
        </g>
        <g transform="matrix(1.648391,0,0,1.648391,58.638925,0.584125)">
            <path d="M0,101.522C0.172,101.522 0.322,101.408 0.37,101.244L13.138,54.624C13.266,53.767 13.226,52.899 12.995,52.064L-0.776,1.885C-1.08,0.629 -1.886,0 -3.189,0L-8.744,0C-10.051,0 -10.853,0.629 -11.157,1.885C-11.157,1.885 -14.361,16.385 -18.099,33.467C-18.283,34.606 -18.085,35.012 -17.825,36.264L-11.175,65.847C-11.076,66.524 -11.377,66.857 -12.076,66.857L-23.669,66.857C-24.903,66.92 -25.404,67.326 -25.602,67.916C-27.308,75.836 -28.667,82.243 -29.308,85.462C-29.601,87.546 -28.506,87.729 -27.546,87.743L-7.107,87.743C-6.704,87.743 -6.404,87.989 -6.199,88.468L-3.643,99.636C-3.339,100.892 -2.49,101.522 -1.08,101.522L0,101.522Z" style="fill:rgb(17,60,139);fill-rule:nonzero;"/>
        </g>
    </g>
</svg>
