<?xml version="1.0" encoding="UTF-8" standalone="no"?><!DOCTYPE svg PUBLIC "-//W3C//DTD SVG 1.1//EN" "http://www.w3.org/Graphics/SVG/1.1/DTD/svg11.dtd"><svg width="100%" height="100%" viewBox="0 0 2391 704" version="1.1" xmlns="http://www.w3.org/2000/svg" xmlns:xlink="http://www.w3.org/1999/xlink" xml:space="preserve" xmlns:serif="http://www.serif.com/" style="fill-rule:evenodd;clip-rule:evenodd;stroke-linejoin:round;stroke-miterlimit:2;"><g id="Ebene-1" serif:id="Ebene 1"><g id="Bildmarke"><path d="M351.075,702.15c-193.592,0 -351.075,-157.479 -351.075,-351.075c0,-193.579 157.483,-351.075 351.075,-351.075c193.579,-0 351.075,157.496 351.075,351.075c0,193.596 -157.496,351.075 -351.075,351.075m0,-664.008c-172.554,0 -312.933,140.379 -312.933,312.933c0,172.554 140.379,312.933 312.933,312.933c172.554,0 312.933,-140.379 312.933,-312.933c0,-172.554 -140.379,-312.933 -312.933,-312.933" style="fill:#113c8b;fill-rule:nonzero;"/><path d="M306.819,562.56c-0.746,0 -1.296,-0.7 -1.113,-1.433c6.988,-26.533 113.371,-413.687 113.371,-413.687c1.254,-5.233 4.625,-7.858 10.054,-7.858l23.146,0c5.446,0 8.788,2.625 10.054,7.858c0,0 13.321,60.417 28.929,131.587c0.746,4.729 -0.063,6.438 -1.163,11.642l-27.692,123.258c-0.413,2.825 0.842,4.213 3.754,4.213l48.287,0c5.158,0.258 7.233,1.967 8.071,4.408c7.112,33 12.771,59.7 15.442,73.125c1.221,8.683 -3.342,9.429 -7.354,9.492l-85.163,0c-1.667,0 -2.929,1.021 -3.771,3.021l-10.662,46.533c-1.254,5.25 -4.821,7.858 -10.679,7.858l-113.512,-0.017Z" style="fill:#ad7f6a;fill-rule:nonzero;"/><path d="M286.32,562.58c0.717,0 1.342,-0.475 1.542,-1.158l53.2,-194.25c0.533,-3.571 0.367,-7.188 -0.596,-10.667l-57.379,-209.079c-1.267,-5.233 -4.625,-7.854 -10.054,-7.854l-23.146,0c-5.446,0 -8.787,2.621 -10.054,7.854c0,0 -13.35,60.417 -28.925,131.592c-0.767,4.746 0.058,6.437 1.142,11.654l27.708,123.262c0.412,2.821 -0.842,4.208 -3.754,4.208l-48.304,0c-5.142,0.263 -7.229,1.954 -8.054,4.413c-7.108,33 -12.771,59.696 -15.442,73.108c-1.221,8.683 3.342,9.446 7.342,9.504l85.162,0c1.679,0 2.929,1.025 3.783,3.021l10.65,46.533c1.267,5.233 4.804,7.858 10.679,7.858l4.5,0Z" style="fill:#113c8b;fill-rule:nonzero;"/></g><g><path d="M1046.445,555.764l-12.083,-53.137c-0.413,-1.621 -1.421,-2.429 -3.021,-2.429l-101.475,0c-1.629,0 -2.621,0.808 -3.033,2.429l-12.679,53.746c-1.221,4.046 -3.846,6.042 -7.858,6.042l-88.796,0c-5.229,0 -7.246,-2.608 -6.042,-7.842l108.142,-408.958c1.192,-4.042 4,-6.054 8.438,-6.054l105.717,0c4.438,0 7.258,2.012 8.45,6.054l108.142,408.958l0.608,2.413c0,3.629 -2.225,5.429 -6.637,5.429l-90.013,0c-4.442,0 -7.067,-2.196 -7.858,-6.65m-100.283,-133.804c0.808,0.629 1.604,0.917 2.413,0.917l64.658,0c2.408,0 3.4,-1.008 3.004,-3.021l-32.621,-147.992c-0.396,-1.617 -1.004,-2.425 -1.812,-2.425c-0.808,0 -1.404,0.808 -1.8,2.425l-34.45,147.383c-0.4,1.221 -0.2,2.121 0.608,2.713" style="fill:#113c8b;fill-rule:nonzero;"/><path d="M1233.707,556.375l-103.9,-408.958c0,0 -2.442,-7.858 6.654,-7.858l93.004,0c4.442,0 7.062,2.213 7.858,6.654l51.963,257.946c0.383,1.204 1.008,1.8 1.817,1.8c0.792,0 1.388,-0.596 1.817,-1.8l50.729,-257.946c0.396,-4.442 3.021,-6.654 7.854,-6.654l90.612,0c5.629,0 7.858,2.625 6.638,7.858l-105.104,408.958c-1.192,4.029 -4.029,6.042 -8.454,6.042l-93.033,0c-4.442,0 -7.25,-2.012 -8.454,-6.042" style="fill:#113c8b;fill-rule:nonzero;"/><path d="M1507.056,560.303c-1.421,-1.421 -2.121,-3.112 -2.121,-5.125l0,-408.379c0,-2 0.7,-3.708 2.121,-5.112c1.404,-1.417 3.112,-2.121 5.125,-2.121l85.792,0c2.012,0 3.704,0.704 5.125,2.121c1.404,1.404 2.121,3.113 2.121,5.112l0,408.379c0,2.013 -0.717,3.704 -2.121,5.125c-1.421,1.404 -3.113,2.121 -5.125,2.121l-85.792,0c-2.013,0 -3.721,-0.717 -5.125,-2.121" style="fill:#113c8b;fill-rule:nonzero;"/><path d="M1896.983,555.764l-12.067,-53.137c-0.429,-1.621 -1.438,-2.429 -3.021,-2.429l-101.492,0c-1.617,0 -2.621,0.808 -3.033,2.429l-12.679,53.746c-1.204,4.046 -3.846,6.042 -7.858,6.042l-88.796,0c-5.229,0 -7.246,-2.608 -6.042,-7.842l108.142,-408.958c1.192,-4.042 4.013,-6.054 8.454,-6.054l105.7,0c4.438,0 7.258,2.012 8.45,6.054l108.154,408.958l0.596,2.413c0,3.629 -2.225,5.429 -6.637,5.429l-90.013,0c-4.442,0 -7.05,-2.196 -7.858,-6.65m-100.267,-133.804c0.792,0.629 1.6,0.917 2.396,0.917l64.658,0c2.408,0 3.4,-1.008 3.021,-3.021l-32.638,-147.992c-0.396,-1.617 -1.004,-2.425 -1.8,-2.425c-0.821,0 -1.417,0.808 -1.812,2.425l-34.438,147.383c-0.413,1.221 -0.213,2.121 0.612,2.713" style="fill:#113c8b;fill-rule:nonzero;"/><path d="M2059.783,560.303c-1.421,-1.421 -2.121,-3.112 -2.121,-5.125l0,-408.379c0,-2 0.7,-3.708 2.121,-5.112c1.387,-1.417 3.113,-2.121 5.142,-2.121l83.975,0c4.012,0 7.017,1.604 9.046,4.838l64.033,113.554c1.204,2.029 2.408,2.029 3.617,0l64.642,-113.554c2.013,-3.233 5.033,-4.838 9.062,-4.838l83.975,0c1.996,0 3.704,0.704 5.142,2.121c1.387,1.404 2.088,3.113 2.088,5.112l0,408.379c0,2.013 -0.7,3.704 -2.088,5.125c-1.438,1.404 -3.146,2.121 -5.142,2.121l-85.792,0c-2.012,0 -3.721,-0.717 -5.125,-2.121c-1.421,-1.421 -2.121,-3.112 -2.121,-5.125l0,-247.679c0,-1.617 -0.396,-2.412 -1.221,-2.412c-0.792,0 -1.6,0.596 -2.396,1.817l-44.108,77.304c-2.012,3.238 -5.033,4.837 -9.062,4.837l-19.329,0c-4.029,0 -7.05,-1.6 -9.062,-4.837l-43.483,-78.525c-0.808,-1.204 -1.629,-1.8 -2.425,-1.8c-0.808,0 -1.204,0.808 -1.204,2.396l0,248.9c0,2.013 -0.7,3.704 -2.104,5.125c-1.421,1.404 -3.129,2.121 -5.142,2.121l-85.775,0c-2.029,0 -3.754,-0.717 -5.142,-2.121" style="fill:#113c8b;fill-rule:nonzero;"/></g></g><path id="AVIAM" d="M811.268,701.165c-0.819,0 -1.229,-0.41 -1.229,-1.229l0,-8.604c0,-0.656 0.164,-1.188 0.492,-1.598l43.021,-63.794c0.082,-0.082 0.082,-0.205 0,-0.369c-0.082,-0.164 -0.205,-0.246 -0.369,-0.246l-41.915,0c-0.819,0 -1.229,-0.41 -1.229,-1.229l0,-7.744c0,-0.819 0.41,-1.229 1.229,-1.229l54.575,0c0.819,0 1.229,0.41 1.229,1.229l0,8.604c0,0.656 -0.164,1.188 -0.492,1.598l-43.267,63.794c-0.082,0.082 -0.082,0.205 0,0.369c0.082,0.164 0.205,0.246 0.369,0.246l42.16,0c0.819,0 1.229,0.41 1.229,1.229l0,7.744c0,0.819 -0.41,1.229 -1.229,1.229l-54.575,0Z" style="fill:#ad7f6a;fill-rule:nonzero;"/><path d="M967.987,702.148c-5.982,0 -11.247,-1.168 -15.795,-3.503c-4.548,-2.335 -8.092,-5.654 -10.632,-9.956c-2.54,-4.302 -3.81,-9.239 -3.81,-14.811l0,-57.525c0,-0.819 0.41,-1.229 1.229,-1.229l9.342,0c0.819,0 1.229,0.41 1.229,1.229l0,57.771c0,5.326 1.7,9.628 5.101,12.906c3.401,3.278 7.846,4.917 13.336,4.917c5.49,0 9.915,-1.639 13.275,-4.917c3.36,-3.278 5.04,-7.58 5.04,-12.906l0,-57.771c0,-0.819 0.41,-1.229 1.229,-1.229l9.342,0c0.819,0 1.229,0.41 1.229,1.229l0,57.525c0,5.572 -1.25,10.509 -3.749,14.811c-2.499,4.302 -6.023,7.621 -10.571,9.956c-4.548,2.335 -9.813,3.503 -15.795,3.503Z" style="fill:#ad7f6a;fill-rule:nonzero;"/><path d="M1074.433,701.165c-0.819,0 -1.229,-0.41 -1.229,-1.229l0,-83.583c0,-0.819 0.41,-1.229 1.229,-1.229l9.342,0c0.819,0 1.229,0.41 1.229,1.229l0,39.21c0,0.164 0.082,0.266 0.246,0.307c0.164,0.041 0.287,-0.02 0.369,-0.184l35.154,-39.825c0.328,-0.492 0.819,-0.737 1.475,-0.737l10.694,0c0.492,0 0.819,0.143 0.983,0.43c0.164,0.287 0.082,0.635 -0.246,1.045l-29.254,34.54c-0.082,0.246 -0.082,0.492 0,0.737l31.344,47.815c0.164,0.328 0.246,0.574 0.246,0.738c0,0.492 -0.328,0.737 -0.983,0.737l-10.694,0c-0.574,0 -1.065,-0.246 -1.475,-0.737l-26.55,-40.194c-0.082,-0.164 -0.205,-0.246 -0.369,-0.246c-0.164,0 -0.287,0.041 -0.369,0.123l-10.325,11.554c-0.164,0.328 -0.246,0.533 -0.246,0.615l0,27.656c0,0.819 -0.41,1.229 -1.229,1.229l-9.342,0Z" style="fill:#ad7f6a;fill-rule:nonzero;"/><path d="M1234.101,702.148c-5.982,0 -11.247,-1.168 -15.795,-3.503c-4.548,-2.335 -8.092,-5.654 -10.632,-9.956c-2.54,-4.302 -3.81,-9.239 -3.81,-14.811l0,-57.525c0,-0.819 0.41,-1.229 1.229,-1.229l9.342,0c0.819,0 1.229,0.41 1.229,1.229l0,57.771c0,5.326 1.7,9.628 5.101,12.906c3.401,3.278 7.846,4.917 13.336,4.917c5.49,0 9.915,-1.639 13.275,-4.917c3.36,-3.278 5.04,-7.58 5.04,-12.906l0,-57.771c0,-0.819 0.41,-1.229 1.229,-1.229l9.342,0c0.819,0 1.229,0.41 1.229,1.229l0,57.525c0,5.572 -1.25,10.509 -3.749,14.811c-2.499,4.302 -6.023,7.621 -10.571,9.956c-4.548,2.335 -9.813,3.503 -15.795,3.503Z" style="fill:#ad7f6a;fill-rule:nonzero;"/><path d="M1389.96,616.352c0,-0.819 0.41,-1.229 1.229,-1.229l9.342,0c0.819,0 1.229,0.41 1.229,1.229l0,83.583c0,0.819 -0.41,1.229 -1.229,1.229l-8.973,0c-0.574,0 -1.065,-0.287 -1.475,-0.86l-38.473,-62.81c-0.082,-0.246 -0.205,-0.348 -0.369,-0.307c-0.164,0.041 -0.246,0.184 -0.246,0.43l0.123,62.319c0,0.819 -0.41,1.229 -1.229,1.229l-9.342,0c-0.819,0 -1.229,-0.41 -1.229,-1.229l0,-83.583c0,-0.819 0.41,-1.229 1.229,-1.229l9.096,0c0.574,0 1.065,0.287 1.475,0.86l38.35,62.81c0.082,0.246 0.205,0.348 0.369,0.307c0.164,-0.041 0.246,-0.184 0.246,-0.43l-0.123,-62.319Z" style="fill:#ad7f6a;fill-rule:nonzero;"/><path d="M1533.526,624.096c0,0.819 -0.41,1.229 -1.229,1.229l-43.513,0c-0.328,0 -0.492,0.164 -0.492,0.492l0,26.427c0,0.328 0.164,0.492 0.492,0.492l29.869,0c0.819,0 1.229,0.41 1.229,1.229l0,7.744c0,0.819 -0.41,1.229 -1.229,1.229l-29.869,0c-0.328,0 -0.492,0.164 -0.492,0.492l0,36.506c0,0.819 -0.41,1.229 -1.229,1.229l-9.342,0c-0.819,0 -1.229,-0.41 -1.229,-1.229l0,-83.583c0,-0.819 0.41,-1.229 1.229,-1.229l54.575,0c0.819,0 1.229,0.41 1.229,1.229l0,7.744Z" style="fill:#ad7f6a;fill-rule:nonzero;"/><path d="M1656.443,615.123c0.819,0 1.229,0.41 1.229,1.229l0,7.867c0,0.819 -0.41,1.229 -1.229,1.229l-23.6,0c-0.328,0 -0.492,0.164 -0.492,0.492l0,73.996c0,0.819 -0.41,1.229 -1.229,1.229l-9.342,0c-0.819,0 -1.229,-0.41 -1.229,-1.229l0,-73.996c0,-0.328 -0.164,-0.492 -0.492,-0.492l-22.494,0c-0.819,0 -1.229,-0.41 -1.229,-1.229l0,-7.867c0,-0.819 0.41,-1.229 1.229,-1.229l58.877,0Z" style="fill:#ad7f6a;fill-rule:nonzero;"/><path d="M1848.505,656.3c-0.41,0.246 -0.41,0.492 0,0.738c8.686,3.688 13.029,10.53 13.029,20.527c0,7.539 -2.499,13.357 -7.498,17.454c-4.999,4.097 -11.513,6.146 -19.544,6.146l-30.606,0c-0.819,0 -1.229,-0.41 -1.229,-1.229l0,-83.583c0,-0.819 0.41,-1.229 1.229,-1.229l29.623,0c8.522,0 15.139,1.946 19.851,5.839c4.712,3.892 7.068,9.567 7.068,17.024c0,8.85 -3.974,14.955 -11.923,18.315Zm-33.556,-30.975c-0.328,0 -0.492,0.164 -0.492,0.492l0,25.935c0,0.328 0.164,0.492 0.492,0.492l18.56,0c4.753,0 8.502,-1.188 11.247,-3.565c2.745,-2.376 4.118,-5.613 4.118,-9.71c0,-4.179 -1.373,-7.498 -4.118,-9.956c-2.745,-2.458 -6.494,-3.688 -11.247,-3.688l-18.56,0Zm19.544,65.515c4.671,0 8.379,-1.291 11.124,-3.872c2.745,-2.581 4.118,-6.084 4.118,-10.509c0,-4.425 -1.393,-7.928 -4.179,-10.509c-2.786,-2.581 -6.597,-3.872 -11.431,-3.872l-19.175,0c-0.328,0 -0.492,0.164 -0.492,0.492l0,27.779c0,0.328 0.164,0.492 0.492,0.492l19.544,0Z" style="fill:#ad7f6a;fill-rule:nonzero;"/><path d="M1983.836,701.165c-0.737,0 -1.229,-0.328 -1.475,-0.983l-4.425,-14.381c-0.082,-0.246 -0.246,-0.369 -0.492,-0.369l-34.54,0c-0.246,0 -0.41,0.123 -0.492,0.369l-4.425,14.381c-0.246,0.656 -0.737,0.983 -1.475,0.983l-9.956,0c-0.901,0 -1.229,-0.451 -0.983,-1.352l26.919,-83.706c0.246,-0.656 0.738,-0.983 1.475,-0.983l12.292,0c0.738,0 1.229,0.328 1.475,0.983l27.165,83.706l0.123,0.492c0,0.574 -0.369,0.86 -1.106,0.86l-10.079,0Zm-38.35,-25.69c-0.082,0.164 -0.061,0.307 0.061,0.43c0.123,0.123 0.266,0.184 0.43,0.184l28.271,0c0.164,0 0.307,-0.061 0.43,-0.184c0.123,-0.123 0.143,-0.266 0.061,-0.43l-14.258,-45.602c-0.082,-0.164 -0.205,-0.246 -0.369,-0.246c-0.164,0 -0.287,0.082 -0.369,0.246l-14.258,45.602Z" style="fill:#ad7f6a;fill-rule:nonzero;"/><path d="M2093.109,702.148c-5.982,0 -11.247,-1.168 -15.795,-3.503c-4.548,-2.335 -8.092,-5.654 -10.632,-9.956c-2.54,-4.302 -3.81,-9.239 -3.81,-14.811l0,-57.525c0,-0.819 0.41,-1.229 1.229,-1.229l9.342,0c0.819,0 1.229,0.41 1.229,1.229l0,57.771c0,5.326 1.7,9.628 5.101,12.906c3.401,3.278 7.846,4.917 13.336,4.917c5.49,0 9.915,-1.639 13.275,-4.917c3.36,-3.278 5.04,-7.58 5.04,-12.906l0,-57.771c0,-0.819 0.41,-1.229 1.229,-1.229l9.342,0c0.819,0 1.229,0.41 1.229,1.229l0,57.525c0,5.572 -1.25,10.509 -3.749,14.811c-2.499,4.302 -6.023,7.621 -10.571,9.956c-4.548,2.335 -9.813,3.503 -15.795,3.503Z" style="fill:#ad7f6a;fill-rule:nonzero;"/><path d="M2255.482,624.096c0,0.819 -0.41,1.229 -1.229,1.229l-43.635,0c-0.328,0 -0.492,0.164 -0.492,0.492l0,26.427c0,0.328 0.164,0.492 0.492,0.492l29.992,0c0.819,0 1.229,0.41 1.229,1.229l0,7.744c0,0.819 -0.41,1.229 -1.229,1.229l-29.992,0c-0.328,0 -0.492,0.164 -0.492,0.492l0,27.042c0,0.328 0.164,0.492 0.492,0.492l43.635,0c0.819,0 1.229,0.41 1.229,1.229l0,7.744c0,0.819 -0.41,1.229 -1.229,1.229l-54.698,0c-0.819,0 -1.229,-0.41 -1.229,-1.229l0,-83.583c0,-0.819 0.41,-1.229 1.229,-1.229l54.698,0c0.819,0 1.229,0.41 1.229,1.229l0,7.744Z" style="fill:#ad7f6a;fill-rule:nonzero;"/><path d="M2378.276,616.352c0,-0.819 0.41,-1.229 1.229,-1.229l9.342,0c0.819,0 1.229,0.41 1.229,1.229l0,83.583c0,0.819 -0.41,1.229 -1.229,1.229l-8.973,0c-0.574,0 -1.065,-0.287 -1.475,-0.86l-38.473,-62.81c-0.082,-0.246 -0.205,-0.348 -0.369,-0.307c-0.164,0.041 -0.246,0.184 -0.246,0.43l0.123,62.319c0,0.819 -0.41,1.229 -1.229,1.229l-9.342,0c-0.819,0 -1.229,-0.41 -1.229,-1.229l0,-83.583c0,-0.819 0.41,-1.229 1.229,-1.229l9.096,0c0.574,0 1.065,0.287 1.475,0.86l38.35,62.81c0.082,0.246 0.205,0.348 0.369,0.307c0.164,-0.041 0.246,-0.184 0.246,-0.43l-0.123,-62.319Z" style="fill:#ad7f6a;fill-rule:nonzero;"/></svg>